<svg width="24" height="24" fill="none" xmlns="http://www.w3.org/2000/svg"><path d="M11.7 2.4 6.4 7.6c-.2.2-.2.6 0 .8l1.2 1.2c.2.2.6.2.8 0l3.3-3.2c.2-.2.5-.2.7 0l3.3 3.2c.2.2.5.2.7 0l1.3-1.2c.2-.2.2-.6 0-.8l-5.3-5.2a.5.5 0 0 0-.8 0ZM11.7 21.6l-5.3-5.2a.5.5 0 0 1 0-.7l1.2-1.3c.2-.2.6-.2.8 0l3.3 3.2c.2.3.5.3.7 0l3.3-3.2c.2-.2.5-.2.7 0l1.3 1.3c.2.2.2.5 0 .7l-5.3 5.3c-.2.1-.6.1-.8 0ZM20.1 10.1l1.5 1.5c.2.2.2.6 0 .8l-1.5 1.5c-.2.2-.5.2-.7 0l-1.5-1.6a.5.5 0 0 1 0-.7l1.5-1.5c.2-.2.5-.2.7 0ZM4.6 10.1l1.5 1.5c.2.2.2.6 0 .8l-1.5 1.5c-.2.2-.5.2-.7 0l-1.5-1.6a.5.5 0 0 1 0-.7l1.5-1.5c.2-.2.5-.2.7 0Z" fill="#FFC01E"/><path d="m12.4 9.9 1.7 1.8c.2.2.2.5 0 .7L12.4 14c-.2.2-.6.2-.8 0L10 12.4a.5.5 0 0 1 0-.8l1.7-1.7c.2-.2.6-.2.8 0Z" fill="#FFC01E"/></svg>