<svg width="24" height="24" fill="none" xmlns="http://www.w3.org/2000/svg"><path d="M14.97 12.75H9.53v2.83H14.97c.95 0 1.73-.64 1.73-1.42 0-.78-.78-1.41-1.73-1.41Z" fill="#FFC01E"/><path d="M12 2a10 10 0 1 0 0 20 10 10 0 0 0 0-20Zm2.97 15.08h-1.65v1.42c0 .41-.34.75-.75.75a.76.76 0 0 1-.75-.75v-1.42h-1.21v1.42c0 .41-.34.75-.75.75a.76.76 0 0 1-.75-.75v-1.42H7.05a.76.76 0 0 1-.75-.75c0-.41.34-.75.75-.75h.98V8.42h-.98a.76.76 0 0 1-.75-.75c0-.41.34-.75.75-.75h2.06V5.5c0-.41.34-.75.75-.75s.75.34.75.75v1.42h1.21V5.5c0-.41.34-.75.75-.75s.75.34.75.75v1.42h.88a3 3 0 0 1 2.92 2.92c0 .67-.24 1.28-.62 1.78a2.88 2.88 0 0 1 1.7 2.56c0 1.59-1.45 2.9-3.23 2.9Z" fill="#FFC01E"/><path d="M15.62 9.83c0-.66-.62-1.42-1.42-1.42H9.53v2.83h4.67c.78.01 1.42-.63 1.42-1.41Z" fill="#FFC01E"/></svg>