<svg width="18" height="18" fill="none" xmlns="http://www.w3.org/2000/svg"><path d="M4.88 17.06a.57.57 0 0 1-.57-.56v-5.25c0-.3.26-.56.57-.56.3 0 .56.25.56.56v5.25c0 .3-.26.56-.57.56ZM4.88 4.31a.57.57 0 0 1-.57-.56V1.5c0-.3.26-.56.57-.56.3 0 .56.25.56.56v2.25c0 .3-.26.56-.57.56ZM13.13 17.06a.57.57 0 0 1-.57-.56v-2.25c0-.3.26-.56.56-.56.31 0 .57.25.57.56v2.25c0 .3-.26.56-.56.56ZM13.13 7.31a.57.57 0 0 1-.57-.56V1.5c0-.3.26-.56.56-.56.31 0 .57.25.57.56v5.25c0 .3-.26.56-.56.56Z" fill="#9E9E9E"/><path d="M5.63 11.81h-1.5c-1.3 0-2.07-.77-2.07-2.06v-4.5c0-1.29.77-2.06 2.06-2.06h1.5c1.3 0 2.07.77 2.07 2.06v4.5c0 1.29-.78 2.06-2.07 2.06Zm-1.5-7.5c-.67 0-.94.27-.94.94v4.5c0 .67.27.94.94.94h1.5c.66 0 .93-.27.93-.94v-4.5c0-.67-.27-.94-.93-.94h-1.5ZM13.88 14.81h-1.5c-1.3 0-2.07-.77-2.07-2.06v-4.5c0-1.29.78-2.06 2.06-2.06h1.5c1.3 0 2.07.77 2.07 2.06v4.5c0 1.29-.78 2.06-2.06 2.06Zm-1.5-7.5c-.67 0-.94.27-.94.94v4.5c0 .67.27.94.94.94h1.5c.66 0 .93-.27.93-.94v-4.5c0-.67-.27-.94-.94-.94h-1.5Z" fill="#9E9E9E"/></svg>