<svg width="24" height="24" fill="none" xmlns="http://www.w3.org/2000/svg"><path d="M18.3 12.8H15c-2.5 0-3.8-1.5-3.8-4.2v-3c0-1 .2-2.4 1.2-3.2 1-.7 2.2-.7 4-.2a8 8 0 0 1 5.4 5.3c.5 1.9.5 3.2-.2 4-.8 1.1-2.3 1.3-3.3 1.3Zm-4-9.4c-.4 0-.8 0-1 .2-.4.3-.5 1-.5 2v3c0 2.2.8 2.7 2.2 2.7h3.3c1.1 0 1.8-.2 2.1-.6.4-.5.3-1.4 0-2.7-.6-2-2.3-3.7-4.3-4.3l-1.8-.3Z" fill="#9E9E9E"/><path d="M11 22.8a9.8 9.8 0 0 1-9.6-8.3A9.9 9.9 0 0 1 9 3.4c.4-.1.8.2.9.6 0 .4-.2.8-.6.8a8.3 8.3 0 1 0 9.9 9.9.7.7 0 1 1 1.4.3c-.9 4.6-5 7.8-9.6 7.8Z" fill="#9E9E9E"/></svg>