<svg width="18" height="18" viewBox="0 0 18 18" fill="none" xmlns="http://www.w3.org/2000/svg">
<path d="M9.5625 11.94H10.05C10.5375 11.94 10.9425 11.505 10.9425 10.98C10.9425 10.3275 10.71 10.2 10.3275 10.065L9.57 9.80249V11.94H9.5625Z" fill="#FFC01E"/>
<path d="M8.97755 1.42494C4.83755 1.43994 1.48505 4.80744 1.50005 8.94744C1.51505 13.0874 4.88255 16.4399 9.02255 16.4249C13.1625 16.4099 16.515 13.0424 16.5 8.90244C16.4851 4.76244 13.1175 1.41744 8.97755 1.42494ZM10.6951 8.99994C11.2801 9.20244 12.0676 9.63744 12.0676 10.9799C12.0676 12.1349 11.16 13.0649 10.05 13.0649H9.56255V13.4999C9.56255 13.8074 9.30755 14.0624 9.00005 14.0624C8.69255 14.0624 8.43755 13.8074 8.43755 13.4999V13.0649H8.16755C6.93755 13.0649 5.94005 12.0299 5.94005 10.7549C5.94005 10.4474 6.19505 10.1924 6.50255 10.1924C6.81005 10.1924 7.06505 10.4474 7.06505 10.7549C7.06505 11.4074 7.56005 11.9399 8.16755 11.9399H8.43755V9.40494L7.30505 8.99994C6.72005 8.79744 5.93255 8.36244 5.93255 7.01994C5.93255 5.86494 6.84005 4.93494 7.95005 4.93494H8.43755V4.49994C8.43755 4.19244 8.69255 3.93744 9.00005 3.93744C9.30755 3.93744 9.56255 4.19244 9.56255 4.49994V4.93494H9.83255C11.0625 4.93494 12.0601 5.96994 12.0601 7.24494C12.0601 7.55244 11.805 7.80744 11.4976 7.80744C11.1901 7.80744 10.9351 7.55244 10.9351 7.24494C10.9351 6.59244 10.4401 6.05994 9.83255 6.05994H9.56255V8.59494L10.6951 8.99994Z" fill="#FFC01E"/>
<path d="M7.06494 7.02756C7.06494 7.68006 7.29744 7.80756 7.67994 7.94256L8.43744 8.20506V6.06006H7.94994C7.46244 6.06006 7.06494 6.49506 7.06494 7.02756Z" fill="#FFC01E"/>
</svg>
