<svg width="24" height="24" fill="none" xmlns="http://www.w3.org/2000/svg"><path d="m8.8 14.4 1.6.8a4 4 0 0 0 3.2 0l1.6-.8c1.5-.6 2.8 1.1 1.8 2.3L13.6 21c-.9 1-2.3 1-3.1 0L7 16.7c-1-1.2.3-3 1.8-2.3ZM8.6 11.7c-.3.2-.3.7 0 .8l2.4 1.2c.5.3 1.4.3 2 0l2.3-1.2c.4-.2.4-.6.1-.8l-3.1-2.4a.5.5 0 0 0-.6 0l-3.1 2.4ZM17.9 8.2 13.7 3l-.3-.2c-.2-.3-.6 0-.6.3v4.3c0 .2 0 .3.2.4l4.2 3.1.1.2h.6c.7-.8.7-2 0-2.9ZM6.1 8.3l4.2-5.2.2-.3c.3-.3.6 0 .6.3v4.4c0 .1 0 .3-.2.4L7 11h-.3c-.1.2-.4.2-.6 0-.6-.7-.6-1.8.1-2.8Z" fill="#3A6FF8"/></svg>