<svg width="24" height="24" fill="none" xmlns="http://www.w3.org/2000/svg"><path d="M15.24 22.27h-.13c-4.44 0-6.58-1.75-6.95-5.67a.75.75 0 1 1 1.5-.14c.29 3.14 1.77 4.31 5.46 4.31h.13c4.07 0 5.51-1.44 5.51-5.51V8.74c0-4.07-1.44-5.51-5.51-5.51h-.13c-3.71 0-5.19 1.19-5.46 4.39a.76.76 0 0 1-1.51-.13c.34-3.98 2.49-5.76 6.96-5.76h.13c4.91 0 7.01 2.1 7.01 7.01v6.52c0 4.91-2.1 7.01-7.01 7.01Z" fill="#9E9E9E"/><path d="M15 12.75H3.62a.76.76 0 0 1-.75-.75c0-.41.34-.75.75-.75H15c.41 0 .75.34.75.75s-.34.75-.75.75Z" fill="#9E9E9E"/><path d="M5.85 16.1a.74.74 0 0 1-.53-.22l-3.35-3.35a.75.75 0 0 1 0-1.06l3.35-3.35a.75.75 0 0 1 1.06 0c.29.29.29.77 0 1.06L3.56 12l2.82 2.82c.29.29.29.77 0 1.06a.73.73 0 0 1-.53.22Z" fill="#9E9E9E"/></svg>