<svg width="24" height="24" fill="none" xmlns="http://www.w3.org/2000/svg"><path d="M12 22.8c-.7 0-1.3-.3-1.8-1l-1.5-2H8c-4.2 0-6.8-1.2-6.8-6.8V8c0-4.4 2.4-6.8 6.8-6.8h8c4.4 0 6.8 2.4 6.8 6.8v5c0 4.4-2.4 6.8-6.8 6.8h-.7l-1.5 2c-.5.7-1.1 1-1.8 1Zm-4-20C4.4 2.8 2.7 4.3 2.7 8v5c0 4.5 1.6 5.3 5.3 5.3h.5c.5 0 1 .2 1.4.6l1.5 2c.3.5.8.5 1.2 0l1.5-2c.3-.4.8-.6 1.4-.6h.5c3.6 0 5.3-1.7 5.3-5.3V8c0-3.6-1.7-5.3-5.3-5.3H8Z" fill="#9E9E9E"/><path d="M17 8.8H7a.8.8 0 0 1-.8-.8c0-.4.4-.8.8-.8h10c.4 0 .8.4.8.8s-.4.8-.8.8ZM13 13.8H7a.8.8 0 0 1-.8-.8c0-.4.4-.8.8-.8h6c.4 0 .8.4.8.8s-.4.8-.8.8Z" fill="#9E9E9E"/></svg>