<svg width="24" height="24" viewBox="0 0 24 24" fill="none" xmlns="http://www.w3.org/2000/svg">
<path d="M5 10.7501C4.31 10.7501 3.75 11.3101 3.75 12.0001C3.75 12.6901 4.31 13.2501 5 13.2501C5.69 13.2501 6.25 12.6901 6.25 12.0001C6.25 11.3101 5.69 10.7501 5 10.7501Z" fill="white"/>
<path d="M19 10.7501C18.31 10.7501 17.75 11.3101 17.75 12.0001C17.75 12.6901 18.31 13.2501 19 13.2501C19.69 13.2501 20.25 12.6901 20.25 12.0001C20.25 11.3101 19.69 10.7501 19 10.7501Z" fill="white"/>
<path d="M12 10.7501C11.31 10.7501 10.75 11.3101 10.75 12.0001C10.75 12.6901 11.31 13.2501 12 13.2501C12.69 13.2501 13.25 12.6901 13.25 12.0001C13.25 11.3101 12.69 10.7501 12 10.7501Z" fill="white"/>
</svg>
