<svg width="24" height="24" fill="none" xmlns="http://www.w3.org/2000/svg"><path d="M12.0199 20.53c-2.33 0-4.66-.37-6.87-1.11-.84-.29-1.48-.88-1.76-1.65-.29-.77-.19-1.62.27-2.38l1.15-1.91c.24-.4.46-1.2.46-1.67V8.92c0-3.72 3.03-6.75 6.75-6.75s6.75 3.03 6.75 6.75v2.89c0 .46.22 1.27.46 1.68l1.14 1.9c.43.72.51 1.59.22 2.38-.29.79-.92 1.39-1.71 1.65-2.2.74-4.53 1.11-6.86 1.11Zm0-16.86c-2.89 0-5.25 2.35-5.25 5.25v2.89c0 .73-.3 1.81-.67 2.44l-1.15 1.91c-.22.37-.28.76-.15 1.09.12.34.42.6.83.74 4.18 1.4 8.61 1.4 12.79 0 .36-.12.64-.39.77-.75s.1-.75-.1-1.08l-1.15-1.91c-.38-.65-.67-1.72-.67-2.45V8.92c0-2.9-2.35-5.25-5.25-5.25Z" fill="#9E9E9E"/><path d="M13.8801 3.94c-.07 0-.14-.01-.21-.03-.29-.08-.57-.14-.84-.18-.85-.11-1.67-.05-2.44.18-.28.09-.58 0-.77-.21-.19-.21-.25-.51-.14-.78.41-1.05 1.41-1.74 2.55-1.74s2.14.68 2.55 1.74c.1.27.05.57-.14.78-.15.16-.36.24-.56.24ZM12.02 22.81c-.99 0-1.95-.4-2.65-1.1-.7-.7-1.1-1.66-1.1-2.65h1.5c0 .59.24 1.17.66 1.59.42.42 1 .66 1.59.66 1.24 0 2.25-1.01 2.25-2.25h1.5c0 2.07-1.68 3.75-3.75 3.75Z" fill="#9E9E9E"/><circle cx="17" cy="5" r="2.5" fill="#F46D22" stroke="#fff"/></svg>