<svg width="24" height="24" fill="none" xmlns="http://www.w3.org/2000/svg"><path d="M12 15.75a3.75 3.75 0 1 1 0-7.5 3.75 3.75 0 0 1 0 7.5Zm0-6a2.25 2.25 0 1 0 0 4.5 2.25 2.25 0 0 0 0-4.5Z" fill="#9E9E9E"/><path d="M15.21 22.19a2.46 2.46 0 0 1-2.1-1.19l-.12-.2c-.59-1.02-1.4-1.02-1.99 0l-.11.19a2.4 2.4 0 0 1-3.3.87l-1.72-.99a2.65 2.65 0 0 1-.98-3.62c.29-.51.37-.97.2-1.26-.17-.29-.6-.46-1.19-.46a2.65 2.65 0 0 1-2.65-2.65v-1.76A2.65 2.65 0 0 1 3.9 8.47c.59 0 1.02-.17 1.19-.46.17-.29.1-.75-.2-1.26a2.66 2.66 0 0 1 .98-3.62l1.73-.99a2.42 2.42 0 0 1 3.3.87l.12.2c.59 1.02 1.4 1.02 1.99 0l.11-.19a2.41 2.41 0 0 1 3.31-.87l1.72.99a2.65 2.65 0 0 1 .98 3.62c-.29.51-.37.97-.2 1.26.17.29.6.46 1.19.46a2.65 2.65 0 0 1 2.65 2.65v1.76a2.65 2.65 0 0 1-2.65 2.65c-.59 0-1.02.17-1.19.46-.17.29-.1.75.2 1.26.35.61.45 1.33.26 2.01a2.58 2.58 0 0 1-1.24 1.61l-1.73.99c-.38.21-.79.32-1.21.32ZM12 18.49c.89 0 1.72.56 2.29 1.55l.11.19c.12.21.32.36.56.42.24.06.48.03.68-.09l1.73-1a1.16 1.16 0 0 0 .43-1.57c-.57-.98-.64-1.99-.2-2.76.44-.77 1.35-1.21 2.49-1.21.64 0 1.15-.51 1.15-1.15v-1.76c0-.63-.51-1.15-1.15-1.15-1.14 0-2.05-.44-2.49-1.21-.44-.77-.37-1.78.2-2.76a1.17 1.17 0 0 0-.42-1.57l-1.73-.99a.92.92 0 0 0-1.26.33l-.11.19c-.57.99-1.4 1.55-2.29 1.55-.89 0-1.72-.56-2.29-1.55l-.11-.2a.92.92 0 0 0-1.24-.32l-1.73 1A1.16 1.16 0 0 0 6.19 6c.57.98.64 1.99.2 2.76-.44.77-1.35 1.21-2.49 1.21-.64 0-1.15.51-1.15 1.15v1.76c0 .63.51 1.15 1.15 1.15 1.14 0 2.05.44 2.49 1.21.44.77.37 1.78-.2 2.76a1.17 1.17 0 0 0 .42 1.57l1.73.99c.21.13.46.16.69.1a.95.95 0 0 0 .57-.43l.11-.19c.57-.98 1.4-1.55 2.29-1.55Z" fill="#9E9E9E"/></svg>