<svg width="24" height="24" fill="none" xmlns="http://www.w3.org/2000/svg"><path d="M14.5 16.8h-5a.8.8 0 0 1-.8-.8c0-.4.4-.8.8-.8h5c.4 0 .8.4.8.8s-.4.8-.8.8ZM5.2 10.5c-.2 0-.4-.1-.5-.3a.8.8 0 0 1-.2-.8L6.4 5v-.2C8 1.4 9.9.5 13.3 1.8c.2 0 .3.2.4.4v.6l-3 6.8c0 .3-.3.5-.6.5H7c-.5 0-1 0-1.6.3h-.3Zm5.4-7.8c-1.2 0-2 .9-2.8 2.7L6.5 8.7h3L11.9 3l-1.3-.3Z" fill="#9E9E9E"/><path d="M18.3 10.3H18c-.4-.2-.8-.2-1.2-.2h-7a.8.8 0 0 1-.6-.4.8.8 0 0 1 0-.7l2.9-6.7c.1-.4.6-.6 1-.5l.3.2 2.4 1c1.3.5 2.3 1.1 2.9 1.8a3.2 3.2 0 0 1 .5 1l.2.4c.2 1 0 2.1-.5 3.6-.1.3-.4.5-.7.5ZM11 8.6H18c.2-.8.3-1.5.1-2v-.2l-.2-.3-.2-.3c-.4-.5-1.2-1-2.3-1.5l-2-.8-2.2 5Z" fill="#9E9E9E"/><path d="M15.9 22.8H8.1l-.8-.1c-3.5-.2-5.5-2.2-5.8-5.8v-2.7a5.7 5.7 0 0 1 5.6-5.6H17c.6 0 1.1 0 1.6.2 2.4.7 4 3 4 5.4v2.6c-.2 3.9-2.5 6-6.6 6ZM7.1 10A4.1 4.1 0 0 0 3 14.2v2.6c.2 2.8 1.6 4.2 4.4 4.4H16c3.3 0 5-1.4 5-4.5v-2.5a4.2 4.2 0 0 0-4-4.1H7Z" fill="#9E9E9E"/><path d="M2.2 15a.8.8 0 0 1-.7-.8v-3c0-3 2.2-5.8 5.3-6.4.3 0 .6 0 .7.3.2.2.3.5.1.7L6 10c0 .2-.2.3-.4.4A4.1 4.1 0 0 0 3 14.2c0 .4-.3.8-.8.8Zm3.4-8.2c-1.3.7-2.2 2-2.5 3.5.4-.5 1-.9 1.5-1.1l1-2.4ZM21.8 15a.8.8 0 0 1-.8-.8c0-1.8-1.2-3.4-3-4a.7.7 0 0 1-.4-1c.5-1.1.6-2 .4-2.6v-.2a.8.8 0 0 1 1-1 6.6 6.6 0 0 1 3.5 5.9v2.9c0 .4-.3.8-.7.8Zm-2.5-6 1.6 1.3a5 5 0 0 0-1.3-2.6l-.3 1.4Z" fill="#9E9E9E"/></svg>