<svg width="24" height="24" fill="none" xmlns="http://www.w3.org/2000/svg"><path d="M13 9.8H7a.8.8 0 0 1-.8-.8c0-.4.4-.8.8-.8h6c.4 0 .8.4.8.8s-.4.8-.8.8ZM19 14.8a2.9 2.9 0 0 1-2.9-2.6c0-.8.2-1.6.8-2.2.5-.5 1.3-.8 2-.8H21c1 0 1.7.8 1.7 1.8v2c0 1-.7 1.8-1.7 1.8h-2Zm2-4.1h-2c-.4 0-.8.1-1 .4-.3.2-.4.6-.4 1 0 .7.7 1.2 1.4 1.2h2c.1 0 .2-.1.2-.3v-2c0-.2 0-.3-.2-.3Z" fill="#9E9E9E"/><path d="M16 21.3H7c-3.4 0-5.8-2.4-5.8-5.8v-7c0-3 2-5.3 4.9-5.7h10.8c3 .4 4.9 2.6 4.9 5.7V10c0 .4-.4.7-.8.7h-2c-.4 0-.8.1-1 .4-.3.3-.4.6-.4 1 0 .7.7 1.2 1.4 1.2h2c.4 0 .8.3.8.7v1.5c0 3.4-2.4 5.8-5.8 5.8Zm-9-17h-.7c-2.2.3-3.5 1.9-3.5 4.2v7c0 2.6 1.6 4.3 4.2 4.3h9c2.6 0 4.3-1.7 4.3-4.3v-.7H19a2.9 2.9 0 0 1-2.9-2.6c0-.8.3-1.6.8-2.2.6-.5 1.3-.8 2-.8h1.4v-.7c0-2.3-1.4-4-3.6-4.2H7Z" fill="#9E9E9E"/></svg>